{
	"asset":{
		"generator":"Khronos glTF Blender I/O v3.6.27",
		"version":"2.0"
	},
	"scene":0,
	"scenes":[
		{
			"name":"Scene",
			"nodes":[
				0,
				1,
				2,
				3,
				4,
				5
			]
		}
	],
	"nodes":[
		{
			"mesh":0,
			"name":"LeavesLOD0",
			"rotation":[
				0,
				-0.9326127171516418,
				0,
				0.3608790934085846
			],
			"scale":[
				2.9253551959991455,
				2.9253549575805664,
				2.9253551959991455
			],
			"translation":[
				0.0886169970035553,
				244.7519073486328,
				-0.12335330247879028
			]
		},
		{
			"mesh":1,
			"name":"TopLOD0",
			"rotation":[
				0,
				-0.02823914960026741,
				0,
				0.9996011853218079
			],
			"scale":[
				0.6154906153678894,
				0.6154909729957581,
				0.6154906153678894
			],
			"translation":[
				0.0886169970035553,
				281.4798278808594,
				-0.12335170060396194
			]
		},
		{
			"mesh":2,
			"name":"StalkLOD0",
			"scale":[
				0.7909619808197021,
				0.7909619808197021,
				0.7909619808197021
			],
			"translation":[
				0.09691400080919266,
				265.8473815917969,
				-0.0184323787689209
			]
		},
		{
			"mesh":3,
			"name":"CornLOD0",
			"rotation":[
				-0.03550022467970848,
				-0.004606347996741533,
				-0.1700720191001892,
				0.9847812056541443
			],
			"scale":[
				0.7909619808197021,
				0.7909619212150574,
				0.7909612059593201
			],
			"translation":[
				6.848372936248779,
				104.84040832519531,
				-1.966004490852356
			]
		},
		{
			"mesh":4,
			"name":"RootsLOD0",
			"rotation":[
				0,
				0.7813459634780884,
				0,
				0.6240981221199036
			],
			"scale":[
				0.7909619808197021,
				0.7909619808197021,
				0.7909619808197021
			],
			"translation":[
				-0.8095530271530151,
				-3.122528076171875,
				0.10917386412620544
			]
		},
		{
			"mesh":5,
			"name":"FluffLOD0",
			"rotation":[
				0.15006445348262787,
				-0.9646074175834656,
				0.05216951295733452,
				0.2104554921388626
			],
			"scale":[
				0.2706657946109772,
				0.2706657350063324,
				0.2706657350063324
			],
			"translation":[
				-11.897171974182129,
				172.301513671875,
				-3.5939443111419678
			]
		}
	],
	"materials":[
		{
			"doubleSided":true,
			"name":"CornLeaves",
			"pbrMetallicRoughness":{
				"baseColorFactor":[
					0.0332803875207901,
					0.2585456669330597,
					0.0869361087679863,
					1
				],
				"metallicFactor":0.29104477167129517,
				"roughnessFactor":0.41791045665740967
			}
		},
		{
			"doubleSided":true,
			"name":"CornTop",
			"pbrMetallicRoughness":{
				"baseColorFactor":[
					0.8000000715255737,
					0.7559446096420288,
					0.010547321289777756,
					1
				],
				"metallicFactor":0,
				"roughnessFactor":0.5
			}
		},
		{
			"doubleSided":true,
			"name":"CornCob",
			"pbrMetallicRoughness":{
				"baseColorFactor":[
					0.8000000715255737,
					0.6223284602165222,
					0,
					1
				],
				"metallicFactor":0,
				"roughnessFactor":0.4000000059604645
			}
		},
		{
			"doubleSided":true,
			"name":"CornRoots",
			"pbrMetallicRoughness":{
				"baseColorFactor":[
					0.0677986666560173,
					0.033272091299295425,
					0.0041282461024820805,
					1
				],
				"metallicFactor":0,
				"roughnessFactor":0.4000000059604645
			}
		},
		{
			"doubleSided":true,
			"name":"CornFluff",
			"pbrMetallicRoughness":{
				"baseColorFactor":[
					0.8000000715255737,
					0.7157029509544373,
					0.18655316531658173,
					1
				],
				"metallicFactor":0,
				"roughnessFactor":0.4000000059604645
			}
		}
	],
	"meshes":[
		{
			"name":"meshId15_name",
			"primitives":[
				{
					"attributes":{
						"POSITION":0,
						"NORMAL":1,
						"TEXCOORD_0":2,
						"TEXCOORD_1":3,
						"TEXCOORD_2":4,
						"TEXCOORD_3":5,
						"TEXCOORD_4":6,
						"TEXCOORD_5":7,
						"TEXCOORD_6":8,
						"TEXCOORD_7":9,
						"TEXCOORD_8":10,
						"TEXCOORD_9":11,
						"TEXCOORD_10":12,
						"TEXCOORD_11":13,
						"TEXCOORD_12":14,
						"TEXCOORD_13":15,
						"TEXCOORD_14":16,
						"TEXCOORD_15":17,
						"TEXCOORD_16":18,
						"TEXCOORD_17":19,
						"TEXCOORD_18":20,
						"TEXCOORD_19":21
					},
					"indices":22,
					"material":0
				}
			]
		},
		{
			"name":"meshId16_name",
			"primitives":[
				{
					"attributes":{
						"POSITION":23,
						"NORMAL":24,
						"TEXCOORD_0":25,
						"TEXCOORD_1":26,
						"TEXCOORD_2":27,
						"TEXCOORD_3":28,
						"TEXCOORD_4":29,
						"TEXCOORD_5":30,
						"TEXCOORD_6":31,
						"TEXCOORD_7":32,
						"TEXCOORD_8":33,
						"TEXCOORD_9":34,
						"TEXCOORD_10":35,
						"TEXCOORD_11":36
					},
					"indices":37,
					"material":1
				}
			]
		},
		{
			"name":"meshId32_name",
			"primitives":[
				{
					"attributes":{
						"POSITION":38,
						"NORMAL":39,
						"TEXCOORD_0":40
					},
					"indices":41,
					"material":0
				}
			]
		},
		{
			"name":"meshId33_name",
			"primitives":[
				{
					"attributes":{
						"POSITION":42,
						"NORMAL":43,
						"TEXCOORD_0":44,
						"TEXCOORD_1":45
					},
					"indices":46,
					"material":2
				}
			]
		},
		{
			"name":"meshId35_name",
			"primitives":[
				{
					"attributes":{
						"COLOR_0":47,
						"POSITION":48,
						"NORMAL":49,
						"TEXCOORD_0":50,
						"TEXCOORD_1":51,
						"TEXCOORD_2":52,
						"TEXCOORD_3":53,
						"TEXCOORD_4":54
					},
					"indices":55,
					"material":3
				}
			]
		},
		{
			"name":"meshId38_name",
			"primitives":[
				{
					"attributes":{
						"POSITION":56,
						"NORMAL":57,
						"TEXCOORD_0":58,
						"TEXCOORD_1":59
					},
					"indices":60,
					"material":4
				}
			]
		}
	],
	"accessors":[
		{
			"bufferView":0,
			"componentType":5126,
			"count":1418,
			"max":[
				23.47140121459961,
				14.464679718017578,
				22.327356338500977
			],
			"min":[
				-20.938709259033203,
				-84.87256622314453,
				-22.502113342285156
			],
			"type":"VEC3"
		},
		{
			"bufferView":1,
			"componentType":5126,
			"count":1418,
			"type":"VEC3"
		},
		{
			"bufferView":2,
			"componentType":5126,
			"count":1418,
			"type":"VEC2"
		},
		{
			"bufferView":3,
			"componentType":5126,
			"count":1418,
			"type":"VEC2"
		},
		{
			"bufferView":4,
			"componentType":5126,
			"count":1418,
			"type":"VEC2"
		},
		{
			"bufferView":5,
			"componentType":5126,
			"count":1418,
			"type":"VEC2"
		},
		{
			"bufferView":6,
			"componentType":5126,
			"count":1418,
			"type":"VEC2"
		},
		{
			"bufferView":7,
			"componentType":5126,
			"count":1418,
			"type":"VEC2"
		},
		{
			"bufferView":8,
			"componentType":5126,
			"count":1418,
			"type":"VEC2"
		},
		{
			"bufferView":9,
			"componentType":5126,
			"count":1418,
			"type":"VEC2"
		},
		{
			"bufferView":10,
			"componentType":5126,
			"count":1418,
			"type":"VEC2"
		},
		{
			"bufferView":11,
			"componentType":5126,
			"count":1418,
			"type":"VEC2"
		},
		{
			"bufferView":12,
			"componentType":5126,
			"count":1418,
			"type":"VEC2"
		},
		{
			"bufferView":13,
			"componentType":5126,
			"count":1418,
			"type":"VEC2"
		},
		{
			"bufferView":14,
			"componentType":5126,
			"count":1418,
			"type":"VEC2"
		},
		{
			"bufferView":15,
			"componentType":5126,
			"count":1418,
			"type":"VEC2"
		},
		{
			"bufferView":16,
			"componentType":5126,
			"count":1418,
			"type":"VEC2"
		},
		{
			"bufferView":17,
			"componentType":5126,
			"count":1418,
			"type":"VEC2"
		},
		{
			"bufferView":18,
			"componentType":5126,
			"count":1418,
			"type":"VEC2"
		},
		{
			"bufferView":19,
			"componentType":5126,
			"count":1418,
			"type":"VEC2"
		},
		{
			"bufferView":20,
			"componentType":5126,
			"count":1418,
			"type":"VEC2"
		},
		{
			"bufferView":21,
			"componentType":5126,
			"count":1418,
			"type":"VEC2"
		},
		{
			"bufferView":22,
			"componentType":5123,
			"count":4104,
			"type":"SCALAR"
		},
		{
			"bufferView":23,
			"componentType":5126,
			"count":240,
			"max":[
				19.098276138305664,
				35.74082946777344,
				17.7122745513916
			],
			"min":[
				-16.12249183654785,
				-0.7661589980125427,
				-18.970609664916992
			],
			"type":"VEC3"
		},
		{
			"bufferView":24,
			"componentType":5126,
			"count":240,
			"type":"VEC3"
		},
		{
			"bufferView":25,
			"componentType":5126,
			"count":240,
			"type":"VEC2"
		},
		{
			"bufferView":26,
			"componentType":5126,
			"count":240,
			"type":"VEC2"
		},
		{
			"bufferView":27,
			"componentType":5126,
			"count":240,
			"type":"VEC2"
		},
		{
			"bufferView":28,
			"componentType":5126,
			"count":240,
			"type":"VEC2"
		},
		{
			"bufferView":29,
			"componentType":5126,
			"count":240,
			"type":"VEC2"
		},
		{
			"bufferView":30,
			"componentType":5126,
			"count":240,
			"type":"VEC2"
		},
		{
			"bufferView":31,
			"componentType":5126,
			"count":240,
			"type":"VEC2"
		},
		{
			"bufferView":32,
			"componentType":5126,
			"count":240,
			"type":"VEC2"
		},
		{
			"bufferView":33,
			"componentType":5126,
			"count":240,
			"type":"VEC2"
		},
		{
			"bufferView":34,
			"componentType":5126,
			"count":240,
			"type":"VEC2"
		},
		{
			"bufferView":35,
			"componentType":5126,
			"count":240,
			"type":"VEC2"
		},
		{
			"bufferView":36,
			"componentType":5126,
			"count":240,
			"type":"VEC2"
		},
		{
			"bufferView":37,
			"componentType":5123,
			"count":828,
			"type":"SCALAR"
		},
		{
			"bufferView":38,
			"componentType":5126,
			"count":69,
			"max":[
				0.5283799767494202,
				32.14447021484375,
				0.5283719897270203
			],
			"min":[
				-0.528365969657898,
				-9.764076232910156,
				-0.5283730030059814
			],
			"type":"VEC3"
		},
		{
			"bufferView":39,
			"componentType":5126,
			"count":69,
			"type":"VEC3"
		},
		{
			"bufferView":40,
			"componentType":5126,
			"count":69,
			"type":"VEC2"
		},
		{
			"bufferView":41,
			"componentType":5123,
			"count":336,
			"type":"SCALAR"
		},
		{
			"bufferView":42,
			"componentType":5126,
			"count":214,
			"max":[
				3.8281590938568115,
				74.552734375,
				8.895584106445312
			],
			"min":[
				-53.214454650878906,
				-14.544090270996094,
				-3.8281490802764893
			],
			"type":"VEC3"
		},
		{
			"bufferView":43,
			"componentType":5126,
			"count":214,
			"type":"VEC3"
		},
		{
			"bufferView":44,
			"componentType":5126,
			"count":214,
			"type":"VEC2"
		},
		{
			"bufferView":45,
			"componentType":5126,
			"count":214,
			"type":"VEC2"
		},
		{
			"bufferView":46,
			"componentType":5123,
			"count":960,
			"type":"SCALAR"
		},
		{
			"bufferView":47,
			"componentType":5123,
			"count":630,
			"normalized":true,
			"type":"VEC4"
		},
		{
			"bufferView":48,
			"componentType":5126,
			"count":630,
			"max":[
				6.8688645362854,
				2.064177989959717,
				8.618512153625488
			],
			"min":[
				-8.293415069580078,
				-4.740264892578125,
				-6.940139293670654
			],
			"type":"VEC3"
		},
		{
			"bufferView":49,
			"componentType":5126,
			"count":630,
			"type":"VEC3"
		},
		{
			"bufferView":50,
			"componentType":5126,
			"count":630,
			"type":"VEC2"
		},
		{
			"bufferView":51,
			"componentType":5126,
			"count":630,
			"type":"VEC2"
		},
		{
			"bufferView":52,
			"componentType":5126,
			"count":630,
			"type":"VEC2"
		},
		{
			"bufferView":53,
			"componentType":5126,
			"count":630,
			"type":"VEC2"
		},
		{
			"bufferView":54,
			"componentType":5126,
			"count":630,
			"type":"VEC2"
		},
		{
			"bufferView":55,
			"componentType":5123,
			"count":2880,
			"type":"SCALAR"
		},
		{
			"bufferView":56,
			"componentType":5126,
			"count":192,
			"max":[
				13.272342681884766,
				14.163990020751953,
				8.598176956176758
			],
			"min":[
				-41.934661865234375,
				-227.67764282226562,
				-20.182750701904297
			],
			"type":"VEC3"
		},
		{
			"bufferView":57,
			"componentType":5126,
			"count":192,
			"type":"VEC3"
		},
		{
			"bufferView":58,
			"componentType":5126,
			"count":192,
			"type":"VEC2"
		},
		{
			"bufferView":59,
			"componentType":5126,
			"count":192,
			"type":"VEC2"
		},
		{
			"bufferView":60,
			"componentType":5123,
			"count":960,
			"type":"SCALAR"
		}
	],
	"bufferViews":[
		{
			"buffer":0,
			"byteLength":17016,
			"byteOffset":0,
			"target":34962
		},
		{
			"buffer":0,
			"byteLength":17016,
			"byteOffset":17016,
			"target":34962
		},
		{
			"buffer":0,
			"byteLength":11344,
			"byteOffset":34032,
			"target":34962
		},
		{
			"buffer":0,
			"byteLength":11344,
			"byteOffset":45376,
			"target":34962
		},
		{
			"buffer":0,
			"byteLength":11344,
			"byteOffset":56720,
			"target":34962
		},
		{
			"buffer":0,
			"byteLength":11344,
			"byteOffset":68064,
			"target":34962
		},
		{
			"buffer":0,
			"byteLength":11344,
			"byteOffset":79408,
			"target":34962
		},
		{
			"buffer":0,
			"byteLength":11344,
			"byteOffset":90752,
			"target":34962
		},
		{
			"buffer":0,
			"byteLength":11344,
			"byteOffset":102096,
			"target":34962
		},
		{
			"buffer":0,
			"byteLength":11344,
			"byteOffset":113440,
			"target":34962
		},
		{
			"buffer":0,
			"byteLength":11344,
			"byteOffset":124784,
			"target":34962
		},
		{
			"buffer":0,
			"byteLength":11344,
			"byteOffset":136128,
			"target":34962
		},
		{
			"buffer":0,
			"byteLength":11344,
			"byteOffset":147472,
			"target":34962
		},
		{
			"buffer":0,
			"byteLength":11344,
			"byteOffset":158816,
			"target":34962
		},
		{
			"buffer":0,
			"byteLength":11344,
			"byteOffset":170160,
			"target":34962
		},
		{
			"buffer":0,
			"byteLength":11344,
			"byteOffset":181504,
			"target":34962
		},
		{
			"buffer":0,
			"byteLength":11344,
			"byteOffset":192848,
			"target":34962
		},
		{
			"buffer":0,
			"byteLength":11344,
			"byteOffset":204192,
			"target":34962
		},
		{
			"buffer":0,
			"byteLength":11344,
			"byteOffset":215536,
			"target":34962
		},
		{
			"buffer":0,
			"byteLength":11344,
			"byteOffset":226880,
			"target":34962
		},
		{
			"buffer":0,
			"byteLength":11344,
			"byteOffset":238224,
			"target":34962
		},
		{
			"buffer":0,
			"byteLength":11344,
			"byteOffset":249568,
			"target":34962
		},
		{
			"buffer":0,
			"byteLength":8208,
			"byteOffset":260912,
			"target":34963
		},
		{
			"buffer":0,
			"byteLength":2880,
			"byteOffset":269120,
			"target":34962
		},
		{
			"buffer":0,
			"byteLength":2880,
			"byteOffset":272000,
			"target":34962
		},
		{
			"buffer":0,
			"byteLength":1920,
			"byteOffset":274880,
			"target":34962
		},
		{
			"buffer":0,
			"byteLength":1920,
			"byteOffset":276800,
			"target":34962
		},
		{
			"buffer":0,
			"byteLength":1920,
			"byteOffset":278720,
			"target":34962
		},
		{
			"buffer":0,
			"byteLength":1920,
			"byteOffset":280640,
			"target":34962
		},
		{
			"buffer":0,
			"byteLength":1920,
			"byteOffset":282560,
			"target":34962
		},
		{
			"buffer":0,
			"byteLength":1920,
			"byteOffset":284480,
			"target":34962
		},
		{
			"buffer":0,
			"byteLength":1920,
			"byteOffset":286400,
			"target":34962
		},
		{
			"buffer":0,
			"byteLength":1920,
			"byteOffset":288320,
			"target":34962
		},
		{
			"buffer":0,
			"byteLength":1920,
			"byteOffset":290240,
			"target":34962
		},
		{
			"buffer":0,
			"byteLength":1920,
			"byteOffset":292160,
			"target":34962
		},
		{
			"buffer":0,
			"byteLength":1920,
			"byteOffset":294080,
			"target":34962
		},
		{
			"buffer":0,
			"byteLength":1920,
			"byteOffset":296000,
			"target":34962
		},
		{
			"buffer":0,
			"byteLength":1656,
			"byteOffset":297920,
			"target":34963
		},
		{
			"buffer":0,
			"byteLength":828,
			"byteOffset":299576,
			"target":34962
		},
		{
			"buffer":0,
			"byteLength":828,
			"byteOffset":300404,
			"target":34962
		},
		{
			"buffer":0,
			"byteLength":552,
			"byteOffset":301232,
			"target":34962
		},
		{
			"buffer":0,
			"byteLength":672,
			"byteOffset":301784,
			"target":34963
		},
		{
			"buffer":0,
			"byteLength":2568,
			"byteOffset":302456,
			"target":34962
		},
		{
			"buffer":0,
			"byteLength":2568,
			"byteOffset":305024,
			"target":34962
		},
		{
			"buffer":0,
			"byteLength":1712,
			"byteOffset":307592,
			"target":34962
		},
		{
			"buffer":0,
			"byteLength":1712,
			"byteOffset":309304,
			"target":34962
		},
		{
			"buffer":0,
			"byteLength":1920,
			"byteOffset":311016,
			"target":34963
		},
		{
			"buffer":0,
			"byteLength":5040,
			"byteOffset":312936,
			"target":34962
		},
		{
			"buffer":0,
			"byteLength":7560,
			"byteOffset":317976,
			"target":34962
		},
		{
			"buffer":0,
			"byteLength":7560,
			"byteOffset":325536,
			"target":34962
		},
		{
			"buffer":0,
			"byteLength":5040,
			"byteOffset":333096,
			"target":34962
		},
		{
			"buffer":0,
			"byteLength":5040,
			"byteOffset":338136,
			"target":34962
		},
		{
			"buffer":0,
			"byteLength":5040,
			"byteOffset":343176,
			"target":34962
		},
		{
			"buffer":0,
			"byteLength":5040,
			"byteOffset":348216,
			"target":34962
		},
		{
			"buffer":0,
			"byteLength":5040,
			"byteOffset":353256,
			"target":34962
		},
		{
			"buffer":0,
			"byteLength":5760,
			"byteOffset":358296,
			"target":34963
		},
		{
			"buffer":0,
			"byteLength":2304,
			"byteOffset":364056,
			"target":34962
		},
		{
			"buffer":0,
			"byteLength":2304,
			"byteOffset":366360,
			"target":34962
		},
		{
			"buffer":0,
			"byteLength":1536,
			"byteOffset":368664,
			"target":34962
		},
		{
			"buffer":0,
			"byteLength":1536,
			"byteOffset":370200,
			"target":34962
		},
		{
			"buffer":0,
			"byteLength":1920,
			"byteOffset":371736,
			"target":34963
		}
	],
	"buffers":[
		{
			"byteLength":373656,
			"uri":"data:application/octet-stream;base64,"
		}
	]
}
