{
	"asset":{
		"generator":"Khronos glTF Blender I/O v3.6.27",
		"version":"2.0"
	},
	"scene":0,
	"scenes":[
		{
			"name":"Scene",
			"nodes":[
				0
			]
		}
	],
	"nodes":[
		{
			"mesh":0,
			"name":"LeavesLOD4",
			"rotation":[
				0,
				-0.9326127171516418,
				0,
				0.3608790934085846
			],
			"scale":[
				2.9253551959991455,
				2.9253549575805664,
				2.9253551959991455
			],
			"translation":[
				0.0886169970035553,
				244.7519073486328,
				-0.12335330247879028
			]
		}
	],
	"materials":[
		{
			"doubleSided":true,
			"name":"CornLeaves",
			"pbrMetallicRoughness":{
				"baseColorFactor":[
					0.0332803875207901,
					0.2585456669330597,
					0.0869361087679863,
					1
				],
				"metallicFactor":0.29104477167129517,
				"roughnessFactor":0.41791045665740967
			}
		}
	],
	"meshes":[
		{
			"name":"meshId15_name.004",
			"primitives":[
				{
					"attributes":{
						"POSITION":0,
						"NORMAL":1,
						"TEXCOORD_0":2,
						"TEXCOORD_1":3,
						"TEXCOORD_2":4,
						"TEXCOORD_3":5,
						"TEXCOORD_4":6,
						"TEXCOORD_5":7,
						"TEXCOORD_6":8,
						"TEXCOORD_7":9,
						"TEXCOORD_8":10,
						"TEXCOORD_9":11,
						"TEXCOORD_10":12,
						"TEXCOORD_11":13,
						"TEXCOORD_12":14,
						"TEXCOORD_13":15,
						"TEXCOORD_14":16,
						"TEXCOORD_15":17,
						"TEXCOORD_16":18,
						"TEXCOORD_17":19,
						"TEXCOORD_18":20,
						"TEXCOORD_19":21
					},
					"indices":22,
					"material":0
				}
			]
		}
	],
	"accessors":[
		{
			"bufferView":0,
			"componentType":5126,
			"count":264,
			"max":[
				23.1824893951416,
				14.460888862609863,
				22.26703643798828
			],
			"min":[
				-21.02372169494629,
				-84.7286376953125,
				-21.751022338867188
			],
			"type":"VEC3"
		},
		{
			"bufferView":1,
			"componentType":5126,
			"count":264,
			"type":"VEC3"
		},
		{
			"bufferView":2,
			"componentType":5126,
			"count":264,
			"type":"VEC2"
		},
		{
			"bufferView":3,
			"componentType":5126,
			"count":264,
			"type":"VEC2"
		},
		{
			"bufferView":4,
			"componentType":5126,
			"count":264,
			"type":"VEC2"
		},
		{
			"bufferView":5,
			"componentType":5126,
			"count":264,
			"type":"VEC2"
		},
		{
			"bufferView":6,
			"componentType":5126,
			"count":264,
			"type":"VEC2"
		},
		{
			"bufferView":7,
			"componentType":5126,
			"count":264,
			"type":"VEC2"
		},
		{
			"bufferView":8,
			"componentType":5126,
			"count":264,
			"type":"VEC2"
		},
		{
			"bufferView":9,
			"componentType":5126,
			"count":264,
			"type":"VEC2"
		},
		{
			"bufferView":10,
			"componentType":5126,
			"count":264,
			"type":"VEC2"
		},
		{
			"bufferView":11,
			"componentType":5126,
			"count":264,
			"type":"VEC2"
		},
		{
			"bufferView":12,
			"componentType":5126,
			"count":264,
			"type":"VEC2"
		},
		{
			"bufferView":13,
			"componentType":5126,
			"count":264,
			"type":"VEC2"
		},
		{
			"bufferView":14,
			"componentType":5126,
			"count":264,
			"type":"VEC2"
		},
		{
			"bufferView":15,
			"componentType":5126,
			"count":264,
			"type":"VEC2"
		},
		{
			"bufferView":16,
			"componentType":5126,
			"count":264,
			"type":"VEC2"
		},
		{
			"bufferView":17,
			"componentType":5126,
			"count":264,
			"type":"VEC2"
		},
		{
			"bufferView":18,
			"componentType":5126,
			"count":264,
			"type":"VEC2"
		},
		{
			"bufferView":19,
			"componentType":5126,
			"count":264,
			"type":"VEC2"
		},
		{
			"bufferView":20,
			"componentType":5126,
			"count":264,
			"type":"VEC2"
		},
		{
			"bufferView":21,
			"componentType":5126,
			"count":264,
			"type":"VEC2"
		},
		{
			"bufferView":22,
			"componentType":5123,
			"count":573,
			"type":"SCALAR"
		}
	],
	"bufferViews":[
		{
			"buffer":0,
			"byteLength":3168,
			"byteOffset":0,
			"target":34962
		},
		{
			"buffer":0,
			"byteLength":3168,
			"byteOffset":3168,
			"target":34962
		},
		{
			"buffer":0,
			"byteLength":2112,
			"byteOffset":6336,
			"target":34962
		},
		{
			"buffer":0,
			"byteLength":2112,
			"byteOffset":8448,
			"target":34962
		},
		{
			"buffer":0,
			"byteLength":2112,
			"byteOffset":10560,
			"target":34962
		},
		{
			"buffer":0,
			"byteLength":2112,
			"byteOffset":12672,
			"target":34962
		},
		{
			"buffer":0,
			"byteLength":2112,
			"byteOffset":14784,
			"target":34962
		},
		{
			"buffer":0,
			"byteLength":2112,
			"byteOffset":16896,
			"target":34962
		},
		{
			"buffer":0,
			"byteLength":2112,
			"byteOffset":19008,
			"target":34962
		},
		{
			"buffer":0,
			"byteLength":2112,
			"byteOffset":21120,
			"target":34962
		},
		{
			"buffer":0,
			"byteLength":2112,
			"byteOffset":23232,
			"target":34962
		},
		{
			"buffer":0,
			"byteLength":2112,
			"byteOffset":25344,
			"target":34962
		},
		{
			"buffer":0,
			"byteLength":2112,
			"byteOffset":27456,
			"target":34962
		},
		{
			"buffer":0,
			"byteLength":2112,
			"byteOffset":29568,
			"target":34962
		},
		{
			"buffer":0,
			"byteLength":2112,
			"byteOffset":31680,
			"target":34962
		},
		{
			"buffer":0,
			"byteLength":2112,
			"byteOffset":33792,
			"target":34962
		},
		{
			"buffer":0,
			"byteLength":2112,
			"byteOffset":35904,
			"target":34962
		},
		{
			"buffer":0,
			"byteLength":2112,
			"byteOffset":38016,
			"target":34962
		},
		{
			"buffer":0,
			"byteLength":2112,
			"byteOffset":40128,
			"target":34962
		},
		{
			"buffer":0,
			"byteLength":2112,
			"byteOffset":42240,
			"target":34962
		},
		{
			"buffer":0,
			"byteLength":2112,
			"byteOffset":44352,
			"target":34962
		},
		{
			"buffer":0,
			"byteLength":2112,
			"byteOffset":46464,
			"target":34962
		},
		{
			"buffer":0,
			"byteLength":1146,
			"byteOffset":48576,
			"target":34963
		}
	],
	"buffers":[
		{
			"byteLength":49724,
			"uri":"data:application/octet-stream;base64,"
		}
	]
}
