{
	"asset":{
		"generator":"Khronos glTF Blender I/O v3.6.27",
		"version":"2.0"
	},
	"scene":0,
	"scenes":[
		{
			"name":"Scene",
			"nodes":[
				0,
				1,
				2,
				3,
				4,
				5,
				6,
				7,
				8,
				9,
				10,
				11,
				12,
				13,
				14,
				15,
				16,
				17,
				18,
				19
			]
		}
	],
	"nodes":[
		{
			"mesh":0,
			"name":"CornLOD0"
		},
		{
			"mesh":1,
			"name":"CornLOD0.001"
		},
		{
			"mesh":2,
			"name":"CornLOD0.002"
		},
		{
			"mesh":3,
			"name":"CornLOD0.003"
		},
		{
			"mesh":4,
			"name":"CornLOD0.004"
		},
		{
			"mesh":5,
			"name":"CornLOD1"
		},
		{
			"mesh":6,
			"name":"CornLOD1.001"
		},
		{
			"mesh":7,
			"name":"CornLOD1.002"
		},
		{
			"mesh":8,
			"name":"CornLOD1.003"
		},
		{
			"mesh":9,
			"name":"CornLOD1.004"
		},
		{
			"mesh":10,
			"name":"CornLOD2"
		},
		{
			"mesh":11,
			"name":"CornLOD2.001"
		},
		{
			"mesh":12,
			"name":"CornLOD2.002"
		},
		{
			"mesh":13,
			"name":"CornLOD2.003"
		},
		{
			"mesh":14,
			"name":"CornLOD3"
		},
		{
			"mesh":15,
			"name":"CornLOD3.001"
		},
		{
			"mesh":16,
			"name":"CornLOD3.002"
		},
		{
			"mesh":17,
			"name":"CornLOD3.003"
		},
		{
			"mesh":18,
			"name":"CornLOD4"
		},
		{
			"mesh":19,
			"name":"CornLOD5"
		}
	],
	"materials":[
		{
			"doubleSided":true,
			"name":"CornFluff",
			"pbrMetallicRoughness":{
				"baseColorFactor":[
					0.8000000715255737,
					0.7157029509544373,
					0.18655316531658173,
					1
				],
				"metallicFactor":0,
				"roughnessFactor":0.4000000059604645
			}
		},
		{
			"doubleSided":true,
			"name":"CornLeaves",
			"pbrMetallicRoughness":{
				"baseColorFactor":[
					0.0332803875207901,
					0.2585456669330597,
					0.0869361087679863,
					1
				],
				"metallicFactor":0.3180428147315979,
				"roughnessFactor":0.2905198931694031
			}
		},
		{
			"doubleSided":true,
			"name":"CornCob",
			"pbrMetallicRoughness":{
				"baseColorFactor":[
					0.8000000715255737,
					0.6223284602165222,
					0,
					1
				],
				"metallicFactor":0.2568807303905487,
				"roughnessFactor":1
			}
		},
		{
			"doubleSided":true,
			"name":"CornTop",
			"pbrMetallicRoughness":{
				"baseColorFactor":[
					0.8000000715255737,
					0.7559446096420288,
					0.010547321289777756,
					1
				],
				"metallicFactor":0,
				"roughnessFactor":0
			}
		},
		{
			"doubleSided":true,
			"name":"CornRoots",
			"pbrMetallicRoughness":{
				"baseColorFactor":[
					0.0677986666560173,
					0.033272091299295425,
					0.0041282461024820805,
					1
				],
				"metallicFactor":0.4984709620475769,
				"roughnessFactor":1
			}
		}
	],
	"meshes":[
		{
			"name":"CornLOD0",
			"primitives":[
				{
					"attributes":{
						"POSITION":0,
						"NORMAL":1
					},
					"indices":2,
					"material":0
				}
			]
		},
		{
			"name":"CornLOD0.001",
			"primitives":[
				{
					"attributes":{
						"POSITION":3,
						"NORMAL":4
					},
					"indices":5,
					"material":1
				}
			]
		},
		{
			"name":"CornLOD0.002",
			"primitives":[
				{
					"attributes":{
						"POSITION":6,
						"NORMAL":7
					},
					"indices":8,
					"material":2
				}
			]
		},
		{
			"name":"CornLOD0.003",
			"primitives":[
				{
					"attributes":{
						"POSITION":9,
						"NORMAL":10
					},
					"indices":11,
					"material":3
				}
			]
		},
		{
			"name":"CornLOD0.004",
			"primitives":[
				{
					"attributes":{
						"POSITION":12,
						"NORMAL":13
					},
					"indices":14,
					"material":4
				}
			]
		},
		{
			"name":"CornLOD1",
			"primitives":[
				{
					"attributes":{
						"POSITION":15,
						"NORMAL":16
					},
					"indices":17,
					"material":0
				}
			]
		},
		{
			"name":"CornLOD1.001",
			"primitives":[
				{
					"attributes":{
						"POSITION":18,
						"NORMAL":19
					},
					"indices":20,
					"material":2
				}
			]
		},
		{
			"name":"CornLOD1.002",
			"primitives":[
				{
					"attributes":{
						"POSITION":21,
						"NORMAL":22
					},
					"indices":23,
					"material":1
				}
			]
		},
		{
			"name":"CornLOD1.003",
			"primitives":[
				{
					"attributes":{
						"POSITION":24,
						"NORMAL":25
					},
					"indices":26,
					"material":3
				}
			]
		},
		{
			"name":"CornLOD1.004",
			"primitives":[
				{
					"attributes":{
						"POSITION":27,
						"NORMAL":28
					},
					"indices":29,
					"material":4
				}
			]
		},
		{
			"name":"CornLOD2",
			"primitives":[
				{
					"attributes":{
						"POSITION":30,
						"NORMAL":31
					},
					"indices":32,
					"material":0
				}
			]
		},
		{
			"name":"CornLOD2.001",
			"primitives":[
				{
					"attributes":{
						"POSITION":33,
						"NORMAL":34
					},
					"indices":35,
					"material":2
				}
			]
		},
		{
			"name":"CornLOD2.002",
			"primitives":[
				{
					"attributes":{
						"POSITION":36,
						"NORMAL":37
					},
					"indices":38,
					"material":1
				}
			]
		},
		{
			"name":"CornLOD2.003",
			"primitives":[
				{
					"attributes":{
						"POSITION":39,
						"NORMAL":40
					},
					"indices":41,
					"material":3
				}
			]
		},
		{
			"name":"CornLOD3",
			"primitives":[
				{
					"attributes":{
						"POSITION":42,
						"NORMAL":43
					},
					"indices":44,
					"material":0
				}
			]
		},
		{
			"name":"CornLOD3.001",
			"primitives":[
				{
					"attributes":{
						"POSITION":45,
						"NORMAL":46
					},
					"indices":47,
					"material":2
				}
			]
		},
		{
			"name":"CornLOD3.002",
			"primitives":[
				{
					"attributes":{
						"POSITION":48,
						"NORMAL":49
					},
					"indices":50,
					"material":1
				}
			]
		},
		{
			"name":"CornLOD3.003",
			"primitives":[
				{
					"attributes":{
						"POSITION":51,
						"NORMAL":52
					},
					"indices":53,
					"material":3
				}
			]
		},
		{
			"name":"CornLOD4",
			"primitives":[
				{
					"attributes":{
						"POSITION":54,
						"NORMAL":55
					},
					"indices":56,
					"material":1
				}
			]
		},
		{
			"name":"CornLOD5",
			"primitives":[
				{
					"attributes":{
						"POSITION":57,
						"NORMAL":58
					},
					"indices":59,
					"material":1
				}
			]
		}
	],
	"accessors":[
		{
			"bufferView":0,
			"componentType":5126,
			"count":192,
			"max":[
				0.10462624579668045,
				1.1305608749389648,
				0.0020975456573069096
			],
			"min":[
				-0.09699419140815735,
				0.7478965520858765,
				-0.04431009665131569
			],
			"type":"VEC3"
		},
		{
			"bufferView":1,
			"componentType":5126,
			"count":192,
			"type":"VEC3"
		},
		{
			"bufferView":2,
			"componentType":5123,
			"count":960,
			"type":"SCALAR"
		},
		{
			"bufferView":3,
			"componentType":5126,
			"count":1231,
			"max":[
				0.36117464303970337,
				1.872881531715393,
				0.39622995257377625
			],
			"min":[
				-0.37360680103302,
				-0.022700952365994453,
				-0.44251108169555664
			],
			"type":"VEC3"
		},
		{
			"bufferView":4,
			"componentType":5126,
			"count":1231,
			"type":"VEC3"
		},
		{
			"bufferView":5,
			"componentType":5123,
			"count":4440,
			"type":"SCALAR"
		},
		{
			"bufferView":6,
			"componentType":5126,
			"count":214,
			"max":[
				0.09057647734880447,
				1.1222957372665405,
				0.0127959493547678
			],
			"min":[
				-0.08534558117389679,
				0.6046197414398193,
				-0.031877052038908005
			],
			"type":"VEC3"
		},
		{
			"bufferView":7,
			"componentType":5126,
			"count":214,
			"type":"VEC3"
		},
		{
			"bufferView":8,
			"componentType":5123,
			"count":960,
			"type":"SCALAR"
		},
		{
			"bufferView":9,
			"componentType":5126,
			"count":240,
			"max":[
				0.07598660886287689,
				1.9513633251190186,
				0.06778296083211899
			],
			"min":[
				-0.06096622720360756,
				1.8068829774856567,
				-0.07621890306472778
			],
			"type":"VEC3"
		},
		{
			"bufferView":10,
			"componentType":5126,
			"count":240,
			"type":"VEC3"
		},
		{
			"bufferView":11,
			"componentType":5123,
			"count":828,
			"type":"SCALAR"
		},
		{
			"bufferView":12,
			"componentType":5126,
			"count":630,
			"max":[
				0.03989740088582039,
				-0.009579764679074287,
				0.04307430610060692
			],
			"min":[
				-0.03731852397322655,
				-0.04418628290295601,
				-0.03569989278912544
			],
			"type":"VEC3"
		},
		{
			"bufferView":13,
			"componentType":5126,
			"count":630,
			"type":"VEC3"
		},
		{
			"bufferView":14,
			"componentType":5123,
			"count":2880,
			"type":"SCALAR"
		},
		{
			"bufferView":15,
			"componentType":5126,
			"count":144,
			"max":[
				0.10462623089551926,
				1.1306917667388916,
				0.002097549382597208
			],
			"min":[
				-0.09683480113744736,
				0.747896671295166,
				-0.044310081750154495
			],
			"type":"VEC3"
		},
		{
			"bufferView":16,
			"componentType":5126,
			"count":144,
			"type":"VEC3"
		},
		{
			"bufferView":17,
			"componentType":5123,
			"count":720,
			"type":"SCALAR"
		},
		{
			"bufferView":18,
			"componentType":5126,
			"count":118,
			"max":[
				0.09068550169467926,
				1.1225862503051758,
				0.012247654609382153
			],
			"min":[
				-0.08515141159296036,
				0.6046198010444641,
				-0.031877048313617706
			],
			"type":"VEC3"
		},
		{
			"bufferView":19,
			"componentType":5126,
			"count":118,
			"type":"VEC3"
		},
		{
			"bufferView":20,
			"componentType":5123,
			"count":480,
			"type":"SCALAR"
		},
		{
			"bufferView":21,
			"componentType":5126,
			"count":969,
			"max":[
				0.3611745536327362,
				1.8728818893432617,
				0.3962300419807434
			],
			"min":[
				-0.37231793999671936,
				-0.022701038047671318,
				-0.44251108169555664
			],
			"type":"VEC3"
		},
		{
			"bufferView":22,
			"componentType":5126,
			"count":969,
			"type":"VEC3"
		},
		{
			"bufferView":23,
			"componentType":5123,
			"count":3162,
			"type":"SCALAR"
		},
		{
			"bufferView":24,
			"componentType":5126,
			"count":185,
			"max":[
				0.07598655670881271,
				1.9513635635375977,
				0.06778299063444138
			],
			"min":[
				-0.060966331511735916,
				1.8068832159042358,
				-0.07621888816356659
			],
			"type":"VEC3"
		},
		{
			"bufferView":25,
			"componentType":5126,
			"count":185,
			"type":"VEC3"
		},
		{
			"bufferView":26,
			"componentType":5123,
			"count":537,
			"type":"SCALAR"
		},
		{
			"bufferView":27,
			"componentType":5126,
			"count":261,
			"max":[
				0.03997041657567024,
				-0.009454421699047089,
				0.04237949475646019
			],
			"min":[
				-0.03730607405304909,
				-0.044339705258607864,
				-0.03558317571878433
			],
			"type":"VEC3"
		},
		{
			"bufferView":28,
			"componentType":5126,
			"count":261,
			"type":"VEC3"
		},
		{
			"bufferView":29,
			"componentType":5123,
			"count":1008,
			"type":"SCALAR"
		},
		{
			"bufferView":30,
			"componentType":5126,
			"count":36,
			"max":[
				0.10493301600217819,
				1.1289682388305664,
				0.0019135542679578066
			],
			"min":[
				-0.09786197543144226,
				0.7487009167671204,
				-0.04152853041887283
			],
			"type":"VEC3"
		},
		{
			"bufferView":31,
			"componentType":5126,
			"count":36,
			"type":"VEC3"
		},
		{
			"bufferView":32,
			"componentType":5123,
			"count":150,
			"type":"SCALAR"
		},
		{
			"bufferView":33,
			"componentType":5126,
			"count":55,
			"max":[
				0.09054787456989288,
				1.1225097179412842,
				0.013623255304992199
			],
			"min":[
				-0.08378386497497559,
				0.6044791340827942,
				-0.030515724793076515
			],
			"type":"VEC3"
		},
		{
			"bufferView":34,
			"componentType":5126,
			"count":55,
			"type":"VEC3"
		},
		{
			"bufferView":35,
			"componentType":5123,
			"count":180,
			"type":"SCALAR"
		},
		{
			"bufferView":36,
			"componentType":5126,
			"count":452,
			"max":[
				0.3586089015007019,
				1.8728818893432617,
				0.39744889736175537
			],
			"min":[
				-0.3686887323856354,
				-0.02207544445991516,
				-0.4425399899482727
			],
			"type":"VEC3"
		},
		{
			"bufferView":37,
			"componentType":5126,
			"count":452,
			"type":"VEC3"
		},
		{
			"bufferView":38,
			"componentType":5123,
			"count":1236,
			"type":"SCALAR"
		},
		{
			"bufferView":39,
			"componentType":5126,
			"count":81,
			"max":[
				0.07598655670881271,
				1.9516215324401855,
				0.06744734942913055
			],
			"min":[
				-0.060966331511735916,
				1.8071213960647583,
				-0.07621888816356659
			],
			"type":"VEC3"
		},
		{
			"bufferView":40,
			"componentType":5126,
			"count":81,
			"type":"VEC3"
		},
		{
			"bufferView":41,
			"componentType":5123,
			"count":171,
			"type":"SCALAR"
		},
		{
			"bufferView":42,
			"componentType":5126,
			"count":21,
			"max":[
				0.10608570277690887,
				1.1272252798080444,
				-0.0018691306468099356
			],
			"min":[
				-0.09426473081111908,
				0.7494205832481384,
				-0.03880998119711876
			],
			"type":"VEC3"
		},
		{
			"bufferView":43,
			"componentType":5126,
			"count":21,
			"type":"VEC3"
		},
		{
			"bufferView":44,
			"componentType":5123,
			"count":78,
			"type":"SCALAR"
		},
		{
			"bufferView":45,
			"componentType":5126,
			"count":22,
			"max":[
				0.0892481878399849,
				1.1222306489944458,
				0.014164045453071594
			],
			"min":[
				-0.08797574788331985,
				0.6071391105651855,
				-0.03226979076862335
			],
			"type":"VEC3"
		},
		{
			"bufferView":46,
			"componentType":5126,
			"count":22,
			"type":"VEC3"
		},
		{
			"bufferView":47,
			"componentType":5123,
			"count":60,
			"type":"SCALAR"
		},
		{
			"bufferView":48,
			"componentType":5126,
			"count":273,
			"max":[
				0.3586089015007019,
				1.8728818893432617,
				0.39744889736175537
			],
			"min":[
				-0.3686887323856354,
				-0.019993696361780167,
				-0.44419869780540466
			],
			"type":"VEC3"
		},
		{
			"bufferView":49,
			"componentType":5126,
			"count":273,
			"type":"VEC3"
		},
		{
			"bufferView":50,
			"componentType":5123,
			"count":600,
			"type":"SCALAR"
		},
		{
			"bufferView":51,
			"componentType":5126,
			"count":52,
			"max":[
				0.07598655670881271,
				1.9502143859863281,
				0.0672820508480072
			],
			"min":[
				-0.05910688638687134,
				1.8071213960647583,
				-0.07638855278491974
			],
			"type":"VEC3"
		},
		{
			"bufferView":52,
			"componentType":5126,
			"count":52,
			"type":"VEC3"
		},
		{
			"bufferView":53,
			"componentType":5123,
			"count":84,
			"type":"SCALAR"
		},
		{
			"bufferView":54,
			"componentType":5126,
			"count":264,
			"max":[
				0.35860899090766907,
				1.8457646369934082,
				0.3974487781524658
			],
			"min":[
				-0.368688702583313,
				-0.019993651658296585,
				-0.44419869780540466
			],
			"type":"VEC3"
		},
		{
			"bufferView":55,
			"componentType":5126,
			"count":264,
			"type":"VEC3"
		},
		{
			"bufferView":56,
			"componentType":5123,
			"count":573,
			"type":"SCALAR"
		},
		{
			"bufferView":57,
			"componentType":5126,
			"count":152,
			"max":[
				0.38734573125839233,
				1.8457646369934082,
				0.3974487781524658
			],
			"min":[
				-0.368688702583313,
				-0.006522733252495527,
				-0.44419869780540466
			],
			"type":"VEC3"
		},
		{
			"bufferView":58,
			"componentType":5126,
			"count":152,
			"type":"VEC3"
		},
		{
			"bufferView":59,
			"componentType":5123,
			"count":294,
			"type":"SCALAR"
		}
	],
	"bufferViews":[
		{
			"buffer":0,
			"byteLength":2304,
			"byteOffset":0,
			"target":34962
		},
		{
			"buffer":0,
			"byteLength":2304,
			"byteOffset":2304,
			"target":34962
		},
		{
			"buffer":0,
			"byteLength":1920,
			"byteOffset":4608,
			"target":34963
		},
		{
			"buffer":0,
			"byteLength":14772,
			"byteOffset":6528,
			"target":34962
		},
		{
			"buffer":0,
			"byteLength":14772,
			"byteOffset":21300,
			"target":34962
		},
		{
			"buffer":0,
			"byteLength":8880,
			"byteOffset":36072,
			"target":34963
		},
		{
			"buffer":0,
			"byteLength":2568,
			"byteOffset":44952,
			"target":34962
		},
		{
			"buffer":0,
			"byteLength":2568,
			"byteOffset":47520,
			"target":34962
		},
		{
			"buffer":0,
			"byteLength":1920,
			"byteOffset":50088,
			"target":34963
		},
		{
			"buffer":0,
			"byteLength":2880,
			"byteOffset":52008,
			"target":34962
		},
		{
			"buffer":0,
			"byteLength":2880,
			"byteOffset":54888,
			"target":34962
		},
		{
			"buffer":0,
			"byteLength":1656,
			"byteOffset":57768,
			"target":34963
		},
		{
			"buffer":0,
			"byteLength":7560,
			"byteOffset":59424,
			"target":34962
		},
		{
			"buffer":0,
			"byteLength":7560,
			"byteOffset":66984,
			"target":34962
		},
		{
			"buffer":0,
			"byteLength":5760,
			"byteOffset":74544,
			"target":34963
		},
		{
			"buffer":0,
			"byteLength":1728,
			"byteOffset":80304,
			"target":34962
		},
		{
			"buffer":0,
			"byteLength":1728,
			"byteOffset":82032,
			"target":34962
		},
		{
			"buffer":0,
			"byteLength":1440,
			"byteOffset":83760,
			"target":34963
		},
		{
			"buffer":0,
			"byteLength":1416,
			"byteOffset":85200,
			"target":34962
		},
		{
			"buffer":0,
			"byteLength":1416,
			"byteOffset":86616,
			"target":34962
		},
		{
			"buffer":0,
			"byteLength":960,
			"byteOffset":88032,
			"target":34963
		},
		{
			"buffer":0,
			"byteLength":11628,
			"byteOffset":88992,
			"target":34962
		},
		{
			"buffer":0,
			"byteLength":11628,
			"byteOffset":100620,
			"target":34962
		},
		{
			"buffer":0,
			"byteLength":6324,
			"byteOffset":112248,
			"target":34963
		},
		{
			"buffer":0,
			"byteLength":2220,
			"byteOffset":118572,
			"target":34962
		},
		{
			"buffer":0,
			"byteLength":2220,
			"byteOffset":120792,
			"target":34962
		},
		{
			"buffer":0,
			"byteLength":1074,
			"byteOffset":123012,
			"target":34963
		},
		{
			"buffer":0,
			"byteLength":3132,
			"byteOffset":124088,
			"target":34962
		},
		{
			"buffer":0,
			"byteLength":3132,
			"byteOffset":127220,
			"target":34962
		},
		{
			"buffer":0,
			"byteLength":2016,
			"byteOffset":130352,
			"target":34963
		},
		{
			"buffer":0,
			"byteLength":432,
			"byteOffset":132368,
			"target":34962
		},
		{
			"buffer":0,
			"byteLength":432,
			"byteOffset":132800,
			"target":34962
		},
		{
			"buffer":0,
			"byteLength":300,
			"byteOffset":133232,
			"target":34963
		},
		{
			"buffer":0,
			"byteLength":660,
			"byteOffset":133532,
			"target":34962
		},
		{
			"buffer":0,
			"byteLength":660,
			"byteOffset":134192,
			"target":34962
		},
		{
			"buffer":0,
			"byteLength":360,
			"byteOffset":134852,
			"target":34963
		},
		{
			"buffer":0,
			"byteLength":5424,
			"byteOffset":135212,
			"target":34962
		},
		{
			"buffer":0,
			"byteLength":5424,
			"byteOffset":140636,
			"target":34962
		},
		{
			"buffer":0,
			"byteLength":2472,
			"byteOffset":146060,
			"target":34963
		},
		{
			"buffer":0,
			"byteLength":972,
			"byteOffset":148532,
			"target":34962
		},
		{
			"buffer":0,
			"byteLength":972,
			"byteOffset":149504,
			"target":34962
		},
		{
			"buffer":0,
			"byteLength":342,
			"byteOffset":150476,
			"target":34963
		},
		{
			"buffer":0,
			"byteLength":252,
			"byteOffset":150820,
			"target":34962
		},
		{
			"buffer":0,
			"byteLength":252,
			"byteOffset":151072,
			"target":34962
		},
		{
			"buffer":0,
			"byteLength":156,
			"byteOffset":151324,
			"target":34963
		},
		{
			"buffer":0,
			"byteLength":264,
			"byteOffset":151480,
			"target":34962
		},
		{
			"buffer":0,
			"byteLength":264,
			"byteOffset":151744,
			"target":34962
		},
		{
			"buffer":0,
			"byteLength":120,
			"byteOffset":152008,
			"target":34963
		},
		{
			"buffer":0,
			"byteLength":3276,
			"byteOffset":152128,
			"target":34962
		},
		{
			"buffer":0,
			"byteLength":3276,
			"byteOffset":155404,
			"target":34962
		},
		{
			"buffer":0,
			"byteLength":1200,
			"byteOffset":158680,
			"target":34963
		},
		{
			"buffer":0,
			"byteLength":624,
			"byteOffset":159880,
			"target":34962
		},
		{
			"buffer":0,
			"byteLength":624,
			"byteOffset":160504,
			"target":34962
		},
		{
			"buffer":0,
			"byteLength":168,
			"byteOffset":161128,
			"target":34963
		},
		{
			"buffer":0,
			"byteLength":3168,
			"byteOffset":161296,
			"target":34962
		},
		{
			"buffer":0,
			"byteLength":3168,
			"byteOffset":164464,
			"target":34962
		},
		{
			"buffer":0,
			"byteLength":1146,
			"byteOffset":167632,
			"target":34963
		},
		{
			"buffer":0,
			"byteLength":1824,
			"byteOffset":168780,
			"target":34962
		},
		{
			"buffer":0,
			"byteLength":1824,
			"byteOffset":170604,
			"target":34962
		},
		{
			"buffer":0,
			"byteLength":588,
			"byteOffset":172428,
			"target":34963
		}
	],
	"buffers":[
		{
			"byteLength":173016,
			"uri":"data:application/octet-stream;base64,"
		}
	]
}
