{
	"asset":{
		"generator":"Khronos glTF Blender I/O v3.6.27",
		"version":"2.0"
	},
	"scene":0,
	"scenes":[
		{
			"name":"Scene",
			"nodes":[
				0,
				1,
				2,
				3,
				4
			]
		}
	],
	"nodes":[
		{
			"mesh":0,
			"name":"LeavesLOD2",
			"rotation":[
				0,
				-0.9326127171516418,
				0,
				0.3608790934085846
			],
			"scale":[
				2.9253551959991455,
				2.9253549575805664,
				2.9253551959991455
			],
			"translation":[
				0.0886169970035553,
				244.7519073486328,
				-0.12335330247879028
			]
		},
		{
			"mesh":1,
			"name":"TopLOD2",
			"rotation":[
				0,
				-0.02823914960026741,
				0,
				0.9996011853218079
			],
			"scale":[
				0.6154906153678894,
				0.6154909729957581,
				0.6154906153678894
			],
			"translation":[
				0.0886169970035553,
				281.4798278808594,
				-0.12335170060396194
			]
		},
		{
			"mesh":2,
			"name":"StalkLOD2",
			"scale":[
				0.7909619808197021,
				0.7909619808197021,
				0.7909619808197021
			],
			"translation":[
				0.09691400080919266,
				265.8473815917969,
				-0.0184323787689209
			]
		},
		{
			"mesh":3,
			"name":"CornLOD2",
			"rotation":[
				-0.03550022467970848,
				-0.004606347996741533,
				-0.1700720191001892,
				0.9847812056541443
			],
			"scale":[
				0.7909619808197021,
				0.7909619212150574,
				0.7909612059593201
			],
			"translation":[
				6.848372936248779,
				104.84040832519531,
				-1.966004490852356
			]
		},
		{
			"mesh":4,
			"name":"FluffLOD2",
			"rotation":[
				0.15006445348262787,
				-0.9646074175834656,
				0.05216951295733452,
				0.2104554921388626
			],
			"scale":[
				0.2706657946109772,
				0.2706657350063324,
				0.2706657350063324
			],
			"translation":[
				-11.897171974182129,
				172.301513671875,
				-3.5939443111419678
			]
		}
	],
	"materials":[
		{
			"doubleSided":true,
			"name":"CornLeaves",
			"pbrMetallicRoughness":{
				"baseColorFactor":[
					0.0332803875207901,
					0.2585456669330597,
					0.0869361087679863,
					1
				],
				"metallicFactor":0.29104477167129517,
				"roughnessFactor":0.41791045665740967
			}
		},
		{
			"doubleSided":true,
			"name":"CornTop",
			"pbrMetallicRoughness":{
				"baseColorFactor":[
					0.8000000715255737,
					0.7559446096420288,
					0.010547321289777756,
					1
				],
				"metallicFactor":0,
				"roughnessFactor":0.5
			}
		},
		{
			"doubleSided":true,
			"name":"CornCob",
			"pbrMetallicRoughness":{
				"baseColorFactor":[
					0.8000000715255737,
					0.6223284602165222,
					0,
					1
				],
				"metallicFactor":0,
				"roughnessFactor":0.4000000059604645
			}
		},
		{
			"doubleSided":true,
			"name":"CornFluff",
			"pbrMetallicRoughness":{
				"baseColorFactor":[
					0.8000000715255737,
					0.7157029509544373,
					0.18655316531658173,
					1
				],
				"metallicFactor":0,
				"roughnessFactor":0.4000000059604645
			}
		}
	],
	"meshes":[
		{
			"name":"meshId15_name.002",
			"primitives":[
				{
					"attributes":{
						"POSITION":0,
						"NORMAL":1,
						"TEXCOORD_0":2,
						"TEXCOORD_1":3,
						"TEXCOORD_2":4,
						"TEXCOORD_3":5,
						"TEXCOORD_4":6,
						"TEXCOORD_5":7,
						"TEXCOORD_6":8,
						"TEXCOORD_7":9,
						"TEXCOORD_8":10,
						"TEXCOORD_9":11,
						"TEXCOORD_10":12,
						"TEXCOORD_11":13,
						"TEXCOORD_12":14,
						"TEXCOORD_13":15,
						"TEXCOORD_14":16,
						"TEXCOORD_15":17,
						"TEXCOORD_16":18,
						"TEXCOORD_17":19,
						"TEXCOORD_18":20,
						"TEXCOORD_19":21
					},
					"indices":22,
					"material":0
				}
			]
		},
		{
			"name":"meshId16_name.002",
			"primitives":[
				{
					"attributes":{
						"POSITION":23,
						"NORMAL":24,
						"TEXCOORD_0":25,
						"TEXCOORD_1":26,
						"TEXCOORD_2":27,
						"TEXCOORD_3":28,
						"TEXCOORD_4":29,
						"TEXCOORD_5":30,
						"TEXCOORD_6":31,
						"TEXCOORD_7":32,
						"TEXCOORD_8":33,
						"TEXCOORD_9":34,
						"TEXCOORD_10":35,
						"TEXCOORD_11":36
					},
					"indices":37,
					"material":1
				}
			]
		},
		{
			"name":"meshId32_name.002",
			"primitives":[
				{
					"attributes":{
						"POSITION":38,
						"NORMAL":39,
						"TEXCOORD_0":40
					},
					"indices":41,
					"material":0
				}
			]
		},
		{
			"name":"meshId33_name.002",
			"primitives":[
				{
					"attributes":{
						"POSITION":42,
						"NORMAL":43,
						"TEXCOORD_0":44,
						"TEXCOORD_1":45
					},
					"indices":46,
					"material":2
				}
			]
		},
		{
			"name":"meshId38_name.002",
			"primitives":[
				{
					"attributes":{
						"POSITION":47,
						"NORMAL":48,
						"TEXCOORD_0":49,
						"TEXCOORD_1":50
					},
					"indices":51,
					"material":3
				}
			]
		}
	],
	"accessors":[
		{
			"bufferView":0,
			"componentType":5126,
			"count":443,
			"max":[
				23.1824893951416,
				14.460888862609863,
				22.26703643798828
			],
			"min":[
				-20.962480545043945,
				-84.83930969238281,
				-21.751022338867188
			],
			"type":"VEC3"
		},
		{
			"bufferView":1,
			"componentType":5126,
			"count":443,
			"type":"VEC3"
		},
		{
			"bufferView":2,
			"componentType":5126,
			"count":443,
			"type":"VEC2"
		},
		{
			"bufferView":3,
			"componentType":5126,
			"count":443,
			"type":"VEC2"
		},
		{
			"bufferView":4,
			"componentType":5126,
			"count":443,
			"type":"VEC2"
		},
		{
			"bufferView":5,
			"componentType":5126,
			"count":443,
			"type":"VEC2"
		},
		{
			"bufferView":6,
			"componentType":5126,
			"count":443,
			"type":"VEC2"
		},
		{
			"bufferView":7,
			"componentType":5126,
			"count":443,
			"type":"VEC2"
		},
		{
			"bufferView":8,
			"componentType":5126,
			"count":443,
			"type":"VEC2"
		},
		{
			"bufferView":9,
			"componentType":5126,
			"count":443,
			"type":"VEC2"
		},
		{
			"bufferView":10,
			"componentType":5126,
			"count":443,
			"type":"VEC2"
		},
		{
			"bufferView":11,
			"componentType":5126,
			"count":443,
			"type":"VEC2"
		},
		{
			"bufferView":12,
			"componentType":5126,
			"count":443,
			"type":"VEC2"
		},
		{
			"bufferView":13,
			"componentType":5126,
			"count":443,
			"type":"VEC2"
		},
		{
			"bufferView":14,
			"componentType":5126,
			"count":443,
			"type":"VEC2"
		},
		{
			"bufferView":15,
			"componentType":5126,
			"count":443,
			"type":"VEC2"
		},
		{
			"bufferView":16,
			"componentType":5126,
			"count":443,
			"type":"VEC2"
		},
		{
			"bufferView":17,
			"componentType":5126,
			"count":443,
			"type":"VEC2"
		},
		{
			"bufferView":18,
			"componentType":5126,
			"count":443,
			"type":"VEC2"
		},
		{
			"bufferView":19,
			"componentType":5126,
			"count":443,
			"type":"VEC2"
		},
		{
			"bufferView":20,
			"componentType":5126,
			"count":443,
			"type":"VEC2"
		},
		{
			"bufferView":21,
			"componentType":5126,
			"count":443,
			"type":"VEC2"
		},
		{
			"bufferView":22,
			"componentType":5123,
			"count":1209,
			"type":"SCALAR"
		},
		{
			"bufferView":23,
			"componentType":5126,
			"count":81,
			"max":[
				19.098276138305664,
				35.806068420410156,
				17.67823028564453
			],
			"min":[
				-16.12249183654785,
				-0.7059468626976013,
				-18.970609664916992
			],
			"type":"VEC3"
		},
		{
			"bufferView":24,
			"componentType":5126,
			"count":81,
			"type":"VEC3"
		},
		{
			"bufferView":25,
			"componentType":5126,
			"count":81,
			"type":"VEC2"
		},
		{
			"bufferView":26,
			"componentType":5126,
			"count":81,
			"type":"VEC2"
		},
		{
			"bufferView":27,
			"componentType":5126,
			"count":81,
			"type":"VEC2"
		},
		{
			"bufferView":28,
			"componentType":5126,
			"count":81,
			"type":"VEC2"
		},
		{
			"bufferView":29,
			"componentType":5126,
			"count":81,
			"type":"VEC2"
		},
		{
			"bufferView":30,
			"componentType":5126,
			"count":81,
			"type":"VEC2"
		},
		{
			"bufferView":31,
			"componentType":5126,
			"count":81,
			"type":"VEC2"
		},
		{
			"bufferView":32,
			"componentType":5126,
			"count":81,
			"type":"VEC2"
		},
		{
			"bufferView":33,
			"componentType":5126,
			"count":81,
			"type":"VEC2"
		},
		{
			"bufferView":34,
			"componentType":5126,
			"count":81,
			"type":"VEC2"
		},
		{
			"bufferView":35,
			"componentType":5126,
			"count":81,
			"type":"VEC2"
		},
		{
			"bufferView":36,
			"componentType":5126,
			"count":81,
			"type":"VEC2"
		},
		{
			"bufferView":37,
			"componentType":5123,
			"count":171,
			"type":"SCALAR"
		},
		{
			"bufferView":38,
			"componentType":5126,
			"count":9,
			"max":[
				0.34507548809051514,
				32.14447021484375,
				0.5813306570053101
			],
			"min":[
				-0.5042017102241516,
				-9.764076232910156,
				-0.5691962838172913
			],
			"type":"VEC3"
		},
		{
			"bufferView":39,
			"componentType":5126,
			"count":9,
			"type":"VEC3"
		},
		{
			"bufferView":40,
			"componentType":5126,
			"count":9,
			"type":"VEC2"
		},
		{
			"bufferView":41,
			"componentType":5123,
			"count":27,
			"type":"SCALAR"
		},
		{
			"bufferView":42,
			"componentType":5126,
			"count":55,
			"max":[
				3.880181312561035,
				74.58740997314453,
				9.101662635803223
			],
			"min":[
				-53.228824615478516,
				-14.3167142868042,
				-4.066579341888428
			],
			"type":"VEC3"
		},
		{
			"bufferView":43,
			"componentType":5126,
			"count":55,
			"type":"VEC3"
		},
		{
			"bufferView":44,
			"componentType":5126,
			"count":55,
			"type":"VEC2"
		},
		{
			"bufferView":45,
			"componentType":5126,
			"count":55,
			"type":"VEC2"
		},
		{
			"bufferView":46,
			"componentType":5123,
			"count":180,
			"type":"SCALAR"
		},
		{
			"bufferView":47,
			"componentType":5126,
			"count":36,
			"max":[
				12.553985595703125,
				13.26506233215332,
				8.798550605773926
			],
			"min":[
				-41.65685272216797,
				-226.6660919189453,
				-19.258726119995117
			],
			"type":"VEC3"
		},
		{
			"bufferView":48,
			"componentType":5126,
			"count":36,
			"type":"VEC3"
		},
		{
			"bufferView":49,
			"componentType":5126,
			"count":36,
			"type":"VEC2"
		},
		{
			"bufferView":50,
			"componentType":5126,
			"count":36,
			"type":"VEC2"
		},
		{
			"bufferView":51,
			"componentType":5123,
			"count":150,
			"type":"SCALAR"
		}
	],
	"bufferViews":[
		{
			"buffer":0,
			"byteLength":5316,
			"byteOffset":0,
			"target":34962
		},
		{
			"buffer":0,
			"byteLength":5316,
			"byteOffset":5316,
			"target":34962
		},
		{
			"buffer":0,
			"byteLength":3544,
			"byteOffset":10632,
			"target":34962
		},
		{
			"buffer":0,
			"byteLength":3544,
			"byteOffset":14176,
			"target":34962
		},
		{
			"buffer":0,
			"byteLength":3544,
			"byteOffset":17720,
			"target":34962
		},
		{
			"buffer":0,
			"byteLength":3544,
			"byteOffset":21264,
			"target":34962
		},
		{
			"buffer":0,
			"byteLength":3544,
			"byteOffset":24808,
			"target":34962
		},
		{
			"buffer":0,
			"byteLength":3544,
			"byteOffset":28352,
			"target":34962
		},
		{
			"buffer":0,
			"byteLength":3544,
			"byteOffset":31896,
			"target":34962
		},
		{
			"buffer":0,
			"byteLength":3544,
			"byteOffset":35440,
			"target":34962
		},
		{
			"buffer":0,
			"byteLength":3544,
			"byteOffset":38984,
			"target":34962
		},
		{
			"buffer":0,
			"byteLength":3544,
			"byteOffset":42528,
			"target":34962
		},
		{
			"buffer":0,
			"byteLength":3544,
			"byteOffset":46072,
			"target":34962
		},
		{
			"buffer":0,
			"byteLength":3544,
			"byteOffset":49616,
			"target":34962
		},
		{
			"buffer":0,
			"byteLength":3544,
			"byteOffset":53160,
			"target":34962
		},
		{
			"buffer":0,
			"byteLength":3544,
			"byteOffset":56704,
			"target":34962
		},
		{
			"buffer":0,
			"byteLength":3544,
			"byteOffset":60248,
			"target":34962
		},
		{
			"buffer":0,
			"byteLength":3544,
			"byteOffset":63792,
			"target":34962
		},
		{
			"buffer":0,
			"byteLength":3544,
			"byteOffset":67336,
			"target":34962
		},
		{
			"buffer":0,
			"byteLength":3544,
			"byteOffset":70880,
			"target":34962
		},
		{
			"buffer":0,
			"byteLength":3544,
			"byteOffset":74424,
			"target":34962
		},
		{
			"buffer":0,
			"byteLength":3544,
			"byteOffset":77968,
			"target":34962
		},
		{
			"buffer":0,
			"byteLength":2418,
			"byteOffset":81512,
			"target":34963
		},
		{
			"buffer":0,
			"byteLength":972,
			"byteOffset":83932,
			"target":34962
		},
		{
			"buffer":0,
			"byteLength":972,
			"byteOffset":84904,
			"target":34962
		},
		{
			"buffer":0,
			"byteLength":648,
			"byteOffset":85876,
			"target":34962
		},
		{
			"buffer":0,
			"byteLength":648,
			"byteOffset":86524,
			"target":34962
		},
		{
			"buffer":0,
			"byteLength":648,
			"byteOffset":87172,
			"target":34962
		},
		{
			"buffer":0,
			"byteLength":648,
			"byteOffset":87820,
			"target":34962
		},
		{
			"buffer":0,
			"byteLength":648,
			"byteOffset":88468,
			"target":34962
		},
		{
			"buffer":0,
			"byteLength":648,
			"byteOffset":89116,
			"target":34962
		},
		{
			"buffer":0,
			"byteLength":648,
			"byteOffset":89764,
			"target":34962
		},
		{
			"buffer":0,
			"byteLength":648,
			"byteOffset":90412,
			"target":34962
		},
		{
			"buffer":0,
			"byteLength":648,
			"byteOffset":91060,
			"target":34962
		},
		{
			"buffer":0,
			"byteLength":648,
			"byteOffset":91708,
			"target":34962
		},
		{
			"buffer":0,
			"byteLength":648,
			"byteOffset":92356,
			"target":34962
		},
		{
			"buffer":0,
			"byteLength":648,
			"byteOffset":93004,
			"target":34962
		},
		{
			"buffer":0,
			"byteLength":342,
			"byteOffset":93652,
			"target":34963
		},
		{
			"buffer":0,
			"byteLength":108,
			"byteOffset":93996,
			"target":34962
		},
		{
			"buffer":0,
			"byteLength":108,
			"byteOffset":94104,
			"target":34962
		},
		{
			"buffer":0,
			"byteLength":72,
			"byteOffset":94212,
			"target":34962
		},
		{
			"buffer":0,
			"byteLength":54,
			"byteOffset":94284,
			"target":34963
		},
		{
			"buffer":0,
			"byteLength":660,
			"byteOffset":94340,
			"target":34962
		},
		{
			"buffer":0,
			"byteLength":660,
			"byteOffset":95000,
			"target":34962
		},
		{
			"buffer":0,
			"byteLength":440,
			"byteOffset":95660,
			"target":34962
		},
		{
			"buffer":0,
			"byteLength":440,
			"byteOffset":96100,
			"target":34962
		},
		{
			"buffer":0,
			"byteLength":360,
			"byteOffset":96540,
			"target":34963
		},
		{
			"buffer":0,
			"byteLength":432,
			"byteOffset":96900,
			"target":34962
		},
		{
			"buffer":0,
			"byteLength":432,
			"byteOffset":97332,
			"target":34962
		},
		{
			"buffer":0,
			"byteLength":288,
			"byteOffset":97764,
			"target":34962
		},
		{
			"buffer":0,
			"byteLength":288,
			"byteOffset":98052,
			"target":34962
		},
		{
			"buffer":0,
			"byteLength":300,
			"byteOffset":98340,
			"target":34963
		}
	],
	"buffers":[
		{
			"byteLength":98640,
			"uri":"data:application/octet-stream;base64,"
		}
	]
}
