{
	"asset":{
		"generator":"Khronos glTF Blender I/O v3.6.27",
		"version":"2.0"
	},
	"scene":0,
	"scenes":[
		{
			"name":"Scene",
			"nodes":[
				0,
				1,
				2,
				3,
				4,
				5
			]
		}
	],
	"nodes":[
		{
			"mesh":0,
			"name":"LeavesLOD1",
			"rotation":[
				0,
				-0.9326127171516418,
				0,
				0.3608790934085846
			],
			"scale":[
				2.9253551959991455,
				2.9253549575805664,
				2.9253551959991455
			],
			"translation":[
				0.0886169970035553,
				244.7519073486328,
				-0.12335330247879028
			]
		},
		{
			"mesh":1,
			"name":"TopLOD1",
			"rotation":[
				0,
				-0.02823914960026741,
				0,
				0.9996011853218079
			],
			"scale":[
				0.6154906153678894,
				0.6154909729957581,
				0.6154906153678894
			],
			"translation":[
				0.0886169970035553,
				281.4798278808594,
				-0.12335170060396194
			]
		},
		{
			"mesh":2,
			"name":"StalkLOD1",
			"scale":[
				0.7909619808197021,
				0.7909619808197021,
				0.7909619808197021
			],
			"translation":[
				0.09691400080919266,
				265.8473815917969,
				-0.0184323787689209
			]
		},
		{
			"mesh":3,
			"name":"CornLOD1",
			"rotation":[
				-0.03550022467970848,
				-0.004606347996741533,
				-0.1700720191001892,
				0.9847812056541443
			],
			"scale":[
				0.7909619808197021,
				0.7909619212150574,
				0.7909612059593201
			],
			"translation":[
				6.848372936248779,
				104.84040832519531,
				-1.966004490852356
			]
		},
		{
			"mesh":4,
			"name":"RootsLOD1",
			"rotation":[
				0,
				0.7813459634780884,
				0,
				0.6240981221199036
			],
			"scale":[
				0.7909619808197021,
				0.7909619808197021,
				0.7909619808197021
			],
			"translation":[
				-0.8095530271530151,
				-3.122528076171875,
				0.10917386412620544
			]
		},
		{
			"mesh":5,
			"name":"FluffLOD1",
			"rotation":[
				0.15006445348262787,
				-0.9646074175834656,
				0.05216951295733452,
				0.2104554921388626
			],
			"scale":[
				0.2706657946109772,
				0.2706657350063324,
				0.2706657350063324
			],
			"translation":[
				-11.897171974182129,
				172.301513671875,
				-3.5939443111419678
			]
		}
	],
	"materials":[
		{
			"doubleSided":true,
			"name":"CornLeaves",
			"pbrMetallicRoughness":{
				"baseColorFactor":[
					0.0332803875207901,
					0.2585456669330597,
					0.0869361087679863,
					1
				],
				"metallicFactor":0.29104477167129517,
				"roughnessFactor":0.41791045665740967
			}
		},
		{
			"doubleSided":true,
			"name":"CornTop",
			"pbrMetallicRoughness":{
				"baseColorFactor":[
					0.8000000715255737,
					0.7559446096420288,
					0.010547321289777756,
					1
				],
				"metallicFactor":0,
				"roughnessFactor":0.5
			}
		},
		{
			"doubleSided":true,
			"name":"CornCob",
			"pbrMetallicRoughness":{
				"baseColorFactor":[
					0.8000000715255737,
					0.6223284602165222,
					0,
					1
				],
				"metallicFactor":0,
				"roughnessFactor":0.4000000059604645
			}
		},
		{
			"doubleSided":true,
			"name":"CornRoots",
			"pbrMetallicRoughness":{
				"baseColorFactor":[
					0.0677986666560173,
					0.033272091299295425,
					0.0041282461024820805,
					1
				],
				"metallicFactor":0,
				"roughnessFactor":0.4000000059604645
			}
		},
		{
			"doubleSided":true,
			"name":"CornFluff",
			"pbrMetallicRoughness":{
				"baseColorFactor":[
					0.8000000715255737,
					0.7157029509544373,
					0.18655316531658173,
					1
				],
				"metallicFactor":0,
				"roughnessFactor":0.4000000059604645
			}
		}
	],
	"meshes":[
		{
			"name":"meshId15_name.001",
			"primitives":[
				{
					"attributes":{
						"POSITION":0,
						"NORMAL":1,
						"TEXCOORD_0":2,
						"TEXCOORD_1":3,
						"TEXCOORD_2":4,
						"TEXCOORD_3":5,
						"TEXCOORD_4":6,
						"TEXCOORD_5":7,
						"TEXCOORD_6":8,
						"TEXCOORD_7":9,
						"TEXCOORD_8":10,
						"TEXCOORD_9":11,
						"TEXCOORD_10":12,
						"TEXCOORD_11":13,
						"TEXCOORD_12":14,
						"TEXCOORD_13":15,
						"TEXCOORD_14":16,
						"TEXCOORD_15":17,
						"TEXCOORD_16":18,
						"TEXCOORD_17":19,
						"TEXCOORD_18":20,
						"TEXCOORD_19":21
					},
					"indices":22,
					"material":0
				}
			]
		},
		{
			"name":"meshId16_name.001",
			"primitives":[
				{
					"attributes":{
						"POSITION":23,
						"NORMAL":24,
						"TEXCOORD_0":25,
						"TEXCOORD_1":26,
						"TEXCOORD_2":27,
						"TEXCOORD_3":28,
						"TEXCOORD_4":29,
						"TEXCOORD_5":30,
						"TEXCOORD_6":31,
						"TEXCOORD_7":32,
						"TEXCOORD_8":33,
						"TEXCOORD_9":34,
						"TEXCOORD_10":35,
						"TEXCOORD_11":36
					},
					"indices":37,
					"material":1
				}
			]
		},
		{
			"name":"meshId32_name.001",
			"primitives":[
				{
					"attributes":{
						"POSITION":38,
						"NORMAL":39,
						"TEXCOORD_0":40
					},
					"indices":41,
					"material":0
				}
			]
		},
		{
			"name":"meshId33_name.001",
			"primitives":[
				{
					"attributes":{
						"POSITION":42,
						"NORMAL":43,
						"TEXCOORD_0":44,
						"TEXCOORD_1":45
					},
					"indices":46,
					"material":2
				}
			]
		},
		{
			"name":"meshId35_name.001",
			"primitives":[
				{
					"attributes":{
						"POSITION":47,
						"NORMAL":48,
						"TEXCOORD_0":49,
						"TEXCOORD_1":50,
						"TEXCOORD_2":51,
						"TEXCOORD_3":52,
						"TEXCOORD_4":53
					},
					"indices":54,
					"material":3
				}
			]
		},
		{
			"name":"meshId38_name.001",
			"primitives":[
				{
					"attributes":{
						"POSITION":55,
						"NORMAL":56,
						"TEXCOORD_0":57,
						"TEXCOORD_1":58
					},
					"indices":59,
					"material":4
				}
			]
		}
	],
	"accessors":[
		{
			"bufferView":0,
			"componentType":5126,
			"count":1017,
			"max":[
				23.424592971801758,
				14.464678764343262,
				22.327354431152344
			],
			"min":[
				-20.938711166381836,
				-84.87256622314453,
				-22.455453872680664
			],
			"type":"VEC3"
		},
		{
			"bufferView":1,
			"componentType":5126,
			"count":1017,
			"type":"VEC3"
		},
		{
			"bufferView":2,
			"componentType":5126,
			"count":1017,
			"type":"VEC2"
		},
		{
			"bufferView":3,
			"componentType":5126,
			"count":1017,
			"type":"VEC2"
		},
		{
			"bufferView":4,
			"componentType":5126,
			"count":1017,
			"type":"VEC2"
		},
		{
			"bufferView":5,
			"componentType":5126,
			"count":1017,
			"type":"VEC2"
		},
		{
			"bufferView":6,
			"componentType":5126,
			"count":1017,
			"type":"VEC2"
		},
		{
			"bufferView":7,
			"componentType":5126,
			"count":1017,
			"type":"VEC2"
		},
		{
			"bufferView":8,
			"componentType":5126,
			"count":1017,
			"type":"VEC2"
		},
		{
			"bufferView":9,
			"componentType":5126,
			"count":1017,
			"type":"VEC2"
		},
		{
			"bufferView":10,
			"componentType":5126,
			"count":1017,
			"type":"VEC2"
		},
		{
			"bufferView":11,
			"componentType":5126,
			"count":1017,
			"type":"VEC2"
		},
		{
			"bufferView":12,
			"componentType":5126,
			"count":1017,
			"type":"VEC2"
		},
		{
			"bufferView":13,
			"componentType":5126,
			"count":1017,
			"type":"VEC2"
		},
		{
			"bufferView":14,
			"componentType":5126,
			"count":1017,
			"type":"VEC2"
		},
		{
			"bufferView":15,
			"componentType":5126,
			"count":1017,
			"type":"VEC2"
		},
		{
			"bufferView":16,
			"componentType":5126,
			"count":1017,
			"type":"VEC2"
		},
		{
			"bufferView":17,
			"componentType":5126,
			"count":1017,
			"type":"VEC2"
		},
		{
			"bufferView":18,
			"componentType":5126,
			"count":1017,
			"type":"VEC2"
		},
		{
			"bufferView":19,
			"componentType":5126,
			"count":1017,
			"type":"VEC2"
		},
		{
			"bufferView":20,
			"componentType":5126,
			"count":1017,
			"type":"VEC2"
		},
		{
			"bufferView":21,
			"componentType":5126,
			"count":1017,
			"type":"VEC2"
		},
		{
			"bufferView":22,
			"componentType":5123,
			"count":3078,
			"type":"SCALAR"
		},
		{
			"bufferView":23,
			"componentType":5126,
			"count":185,
			"max":[
				19.098276138305664,
				35.74082946777344,
				17.7122745513916
			],
			"min":[
				-16.12249183654785,
				-0.7661589980125427,
				-18.970609664916992
			],
			"type":"VEC3"
		},
		{
			"bufferView":24,
			"componentType":5126,
			"count":185,
			"type":"VEC3"
		},
		{
			"bufferView":25,
			"componentType":5126,
			"count":185,
			"type":"VEC2"
		},
		{
			"bufferView":26,
			"componentType":5126,
			"count":185,
			"type":"VEC2"
		},
		{
			"bufferView":27,
			"componentType":5126,
			"count":185,
			"type":"VEC2"
		},
		{
			"bufferView":28,
			"componentType":5126,
			"count":185,
			"type":"VEC2"
		},
		{
			"bufferView":29,
			"componentType":5126,
			"count":185,
			"type":"VEC2"
		},
		{
			"bufferView":30,
			"componentType":5126,
			"count":185,
			"type":"VEC2"
		},
		{
			"bufferView":31,
			"componentType":5126,
			"count":185,
			"type":"VEC2"
		},
		{
			"bufferView":32,
			"componentType":5126,
			"count":185,
			"type":"VEC2"
		},
		{
			"bufferView":33,
			"componentType":5126,
			"count":185,
			"type":"VEC2"
		},
		{
			"bufferView":34,
			"componentType":5126,
			"count":185,
			"type":"VEC2"
		},
		{
			"bufferView":35,
			"componentType":5126,
			"count":185,
			"type":"VEC2"
		},
		{
			"bufferView":36,
			"componentType":5126,
			"count":185,
			"type":"VEC2"
		},
		{
			"bufferView":37,
			"componentType":5123,
			"count":537,
			"type":"SCALAR"
		},
		{
			"bufferView":38,
			"componentType":5126,
			"count":20,
			"max":[
				0.45746707916259766,
				32.14447021484375,
				0.45745906233787537
			],
			"min":[
				-0.49482256174087524,
				-9.764118194580078,
				-0.5283730030059814
			],
			"type":"VEC3"
		},
		{
			"bufferView":39,
			"componentType":5126,
			"count":20,
			"type":"VEC3"
		},
		{
			"bufferView":40,
			"componentType":5126,
			"count":20,
			"type":"VEC2"
		},
		{
			"bufferView":41,
			"componentType":5123,
			"count":84,
			"type":"SCALAR"
		},
		{
			"bufferView":42,
			"componentType":5126,
			"count":118,
			"max":[
				3.7823312282562256,
				74.60379791259766,
				8.765981674194336
			],
			"min":[
				-53.231971740722656,
				-14.544090270996094,
				-3.8281490802764893
			],
			"type":"VEC3"
		},
		{
			"bufferView":43,
			"componentType":5126,
			"count":118,
			"type":"VEC3"
		},
		{
			"bufferView":44,
			"componentType":5126,
			"count":118,
			"type":"VEC2"
		},
		{
			"bufferView":45,
			"componentType":5126,
			"count":118,
			"type":"VEC2"
		},
		{
			"bufferView":46,
			"componentType":5123,
			"count":480,
			"type":"SCALAR"
		},
		{
			"bufferView":47,
			"componentType":5126,
			"count":261,
			"max":[
				6.850301742553711,
				2.0888078212738037,
				8.481895446777344
			],
			"min":[
				-8.200202941894531,
				-4.77042293548584,
				-6.9563493728637695
			],
			"type":"VEC3"
		},
		{
			"bufferView":48,
			"componentType":5126,
			"count":261,
			"type":"VEC3"
		},
		{
			"bufferView":49,
			"componentType":5126,
			"count":261,
			"type":"VEC2"
		},
		{
			"bufferView":50,
			"componentType":5126,
			"count":261,
			"type":"VEC2"
		},
		{
			"bufferView":51,
			"componentType":5126,
			"count":261,
			"type":"VEC2"
		},
		{
			"bufferView":52,
			"componentType":5126,
			"count":261,
			"type":"VEC2"
		},
		{
			"bufferView":53,
			"componentType":5126,
			"count":261,
			"type":"VEC2"
		},
		{
			"bufferView":54,
			"componentType":5123,
			"count":1008,
			"type":"SCALAR"
		},
		{
			"bufferView":55,
			"componentType":5126,
			"count":144,
			"max":[
				13.272342681884766,
				14.163990020751953,
				8.598176956176758
			],
			"min":[
				-41.934661865234375,
				-227.67764282226562,
				-20.182750701904297
			],
			"type":"VEC3"
		},
		{
			"bufferView":56,
			"componentType":5126,
			"count":144,
			"type":"VEC3"
		},
		{
			"bufferView":57,
			"componentType":5126,
			"count":144,
			"type":"VEC2"
		},
		{
			"bufferView":58,
			"componentType":5126,
			"count":144,
			"type":"VEC2"
		},
		{
			"bufferView":59,
			"componentType":5123,
			"count":720,
			"type":"SCALAR"
		}
	],
	"bufferViews":[
		{
			"buffer":0,
			"byteLength":12204,
			"byteOffset":0,
			"target":34962
		},
		{
			"buffer":0,
			"byteLength":12204,
			"byteOffset":12204,
			"target":34962
		},
		{
			"buffer":0,
			"byteLength":8136,
			"byteOffset":24408,
			"target":34962
		},
		{
			"buffer":0,
			"byteLength":8136,
			"byteOffset":32544,
			"target":34962
		},
		{
			"buffer":0,
			"byteLength":8136,
			"byteOffset":40680,
			"target":34962
		},
		{
			"buffer":0,
			"byteLength":8136,
			"byteOffset":48816,
			"target":34962
		},
		{
			"buffer":0,
			"byteLength":8136,
			"byteOffset":56952,
			"target":34962
		},
		{
			"buffer":0,
			"byteLength":8136,
			"byteOffset":65088,
			"target":34962
		},
		{
			"buffer":0,
			"byteLength":8136,
			"byteOffset":73224,
			"target":34962
		},
		{
			"buffer":0,
			"byteLength":8136,
			"byteOffset":81360,
			"target":34962
		},
		{
			"buffer":0,
			"byteLength":8136,
			"byteOffset":89496,
			"target":34962
		},
		{
			"buffer":0,
			"byteLength":8136,
			"byteOffset":97632,
			"target":34962
		},
		{
			"buffer":0,
			"byteLength":8136,
			"byteOffset":105768,
			"target":34962
		},
		{
			"buffer":0,
			"byteLength":8136,
			"byteOffset":113904,
			"target":34962
		},
		{
			"buffer":0,
			"byteLength":8136,
			"byteOffset":122040,
			"target":34962
		},
		{
			"buffer":0,
			"byteLength":8136,
			"byteOffset":130176,
			"target":34962
		},
		{
			"buffer":0,
			"byteLength":8136,
			"byteOffset":138312,
			"target":34962
		},
		{
			"buffer":0,
			"byteLength":8136,
			"byteOffset":146448,
			"target":34962
		},
		{
			"buffer":0,
			"byteLength":8136,
			"byteOffset":154584,
			"target":34962
		},
		{
			"buffer":0,
			"byteLength":8136,
			"byteOffset":162720,
			"target":34962
		},
		{
			"buffer":0,
			"byteLength":8136,
			"byteOffset":170856,
			"target":34962
		},
		{
			"buffer":0,
			"byteLength":8136,
			"byteOffset":178992,
			"target":34962
		},
		{
			"buffer":0,
			"byteLength":6156,
			"byteOffset":187128,
			"target":34963
		},
		{
			"buffer":0,
			"byteLength":2220,
			"byteOffset":193284,
			"target":34962
		},
		{
			"buffer":0,
			"byteLength":2220,
			"byteOffset":195504,
			"target":34962
		},
		{
			"buffer":0,
			"byteLength":1480,
			"byteOffset":197724,
			"target":34962
		},
		{
			"buffer":0,
			"byteLength":1480,
			"byteOffset":199204,
			"target":34962
		},
		{
			"buffer":0,
			"byteLength":1480,
			"byteOffset":200684,
			"target":34962
		},
		{
			"buffer":0,
			"byteLength":1480,
			"byteOffset":202164,
			"target":34962
		},
		{
			"buffer":0,
			"byteLength":1480,
			"byteOffset":203644,
			"target":34962
		},
		{
			"buffer":0,
			"byteLength":1480,
			"byteOffset":205124,
			"target":34962
		},
		{
			"buffer":0,
			"byteLength":1480,
			"byteOffset":206604,
			"target":34962
		},
		{
			"buffer":0,
			"byteLength":1480,
			"byteOffset":208084,
			"target":34962
		},
		{
			"buffer":0,
			"byteLength":1480,
			"byteOffset":209564,
			"target":34962
		},
		{
			"buffer":0,
			"byteLength":1480,
			"byteOffset":211044,
			"target":34962
		},
		{
			"buffer":0,
			"byteLength":1480,
			"byteOffset":212524,
			"target":34962
		},
		{
			"buffer":0,
			"byteLength":1480,
			"byteOffset":214004,
			"target":34962
		},
		{
			"buffer":0,
			"byteLength":1074,
			"byteOffset":215484,
			"target":34963
		},
		{
			"buffer":0,
			"byteLength":240,
			"byteOffset":216560,
			"target":34962
		},
		{
			"buffer":0,
			"byteLength":240,
			"byteOffset":216800,
			"target":34962
		},
		{
			"buffer":0,
			"byteLength":160,
			"byteOffset":217040,
			"target":34962
		},
		{
			"buffer":0,
			"byteLength":168,
			"byteOffset":217200,
			"target":34963
		},
		{
			"buffer":0,
			"byteLength":1416,
			"byteOffset":217368,
			"target":34962
		},
		{
			"buffer":0,
			"byteLength":1416,
			"byteOffset":218784,
			"target":34962
		},
		{
			"buffer":0,
			"byteLength":944,
			"byteOffset":220200,
			"target":34962
		},
		{
			"buffer":0,
			"byteLength":944,
			"byteOffset":221144,
			"target":34962
		},
		{
			"buffer":0,
			"byteLength":960,
			"byteOffset":222088,
			"target":34963
		},
		{
			"buffer":0,
			"byteLength":3132,
			"byteOffset":223048,
			"target":34962
		},
		{
			"buffer":0,
			"byteLength":3132,
			"byteOffset":226180,
			"target":34962
		},
		{
			"buffer":0,
			"byteLength":2088,
			"byteOffset":229312,
			"target":34962
		},
		{
			"buffer":0,
			"byteLength":2088,
			"byteOffset":231400,
			"target":34962
		},
		{
			"buffer":0,
			"byteLength":2088,
			"byteOffset":233488,
			"target":34962
		},
		{
			"buffer":0,
			"byteLength":2088,
			"byteOffset":235576,
			"target":34962
		},
		{
			"buffer":0,
			"byteLength":2088,
			"byteOffset":237664,
			"target":34962
		},
		{
			"buffer":0,
			"byteLength":2016,
			"byteOffset":239752,
			"target":34963
		},
		{
			"buffer":0,
			"byteLength":1728,
			"byteOffset":241768,
			"target":34962
		},
		{
			"buffer":0,
			"byteLength":1728,
			"byteOffset":243496,
			"target":34962
		},
		{
			"buffer":0,
			"byteLength":1152,
			"byteOffset":245224,
			"target":34962
		},
		{
			"buffer":0,
			"byteLength":1152,
			"byteOffset":246376,
			"target":34962
		},
		{
			"buffer":0,
			"byteLength":1440,
			"byteOffset":247528,
			"target":34963
		}
	],
	"buffers":[
		{
			"byteLength":248968,
			"uri":"data:application/octet-stream;base64,"
		}
	]
}
