{
	"asset":{
		"generator":"Khronos glTF Blender I/O v3.6.27",
		"version":"2.0"
	},
	"scene":0,
	"scenes":[
		{
			"name":"Scene",
			"nodes":[
				0
			]
		}
	],
	"nodes":[
		{
			"mesh":0,
			"name":"LeavesLOD5",
			"rotation":[
				0,
				-0.9326127171516418,
				0,
				0.3608790934085846
			],
			"scale":[
				2.9253551959991455,
				2.9253549575805664,
				2.9253551959991455
			],
			"translation":[
				0.0886169970035553,
				244.7519073486328,
				-0.12335330247879028
			]
		}
	],
	"materials":[
		{
			"doubleSided":true,
			"name":"CornLeaves",
			"pbrMetallicRoughness":{
				"baseColorFactor":[
					0.0332803875207901,
					0.2585456669330597,
					0.0869361087679863,
					1
				],
				"metallicFactor":0.29104477167129517,
				"roughnessFactor":0.41791045665740967
			}
		}
	],
	"meshes":[
		{
			"name":"meshId15_name.005",
			"primitives":[
				{
					"attributes":{
						"POSITION":0,
						"NORMAL":1,
						"TEXCOORD_0":2,
						"TEXCOORD_1":3,
						"TEXCOORD_2":4,
						"TEXCOORD_3":5,
						"TEXCOORD_4":6,
						"TEXCOORD_5":7,
						"TEXCOORD_6":8,
						"TEXCOORD_7":9,
						"TEXCOORD_8":10,
						"TEXCOORD_9":11,
						"TEXCOORD_10":12,
						"TEXCOORD_11":13,
						"TEXCOORD_12":14,
						"TEXCOORD_13":15,
						"TEXCOORD_14":16,
						"TEXCOORD_15":17,
						"TEXCOORD_16":18,
						"TEXCOORD_17":19,
						"TEXCOORD_18":20,
						"TEXCOORD_19":21
					},
					"indices":22,
					"material":0
				}
			]
		}
	],
	"accessors":[
		{
			"bufferView":0,
			"componentType":5126,
			"count":152,
			"max":[
				23.1824893951416,
				14.460888862609863,
				22.26703643798828
			],
			"min":[
				-22.328153610229492,
				-84.01248168945312,
				-21.824108123779297
			],
			"type":"VEC3"
		},
		{
			"bufferView":1,
			"componentType":5126,
			"count":152,
			"type":"VEC3"
		},
		{
			"bufferView":2,
			"componentType":5126,
			"count":152,
			"type":"VEC2"
		},
		{
			"bufferView":3,
			"componentType":5126,
			"count":152,
			"type":"VEC2"
		},
		{
			"bufferView":4,
			"componentType":5126,
			"count":152,
			"type":"VEC2"
		},
		{
			"bufferView":5,
			"componentType":5126,
			"count":152,
			"type":"VEC2"
		},
		{
			"bufferView":6,
			"componentType":5126,
			"count":152,
			"type":"VEC2"
		},
		{
			"bufferView":7,
			"componentType":5126,
			"count":152,
			"type":"VEC2"
		},
		{
			"bufferView":8,
			"componentType":5126,
			"count":152,
			"type":"VEC2"
		},
		{
			"bufferView":9,
			"componentType":5126,
			"count":152,
			"type":"VEC2"
		},
		{
			"bufferView":10,
			"componentType":5126,
			"count":152,
			"type":"VEC2"
		},
		{
			"bufferView":11,
			"componentType":5126,
			"count":152,
			"type":"VEC2"
		},
		{
			"bufferView":12,
			"componentType":5126,
			"count":152,
			"type":"VEC2"
		},
		{
			"bufferView":13,
			"componentType":5126,
			"count":152,
			"type":"VEC2"
		},
		{
			"bufferView":14,
			"componentType":5126,
			"count":152,
			"type":"VEC2"
		},
		{
			"bufferView":15,
			"componentType":5126,
			"count":152,
			"type":"VEC2"
		},
		{
			"bufferView":16,
			"componentType":5126,
			"count":152,
			"type":"VEC2"
		},
		{
			"bufferView":17,
			"componentType":5126,
			"count":152,
			"type":"VEC2"
		},
		{
			"bufferView":18,
			"componentType":5126,
			"count":152,
			"type":"VEC2"
		},
		{
			"bufferView":19,
			"componentType":5126,
			"count":152,
			"type":"VEC2"
		},
		{
			"bufferView":20,
			"componentType":5126,
			"count":152,
			"type":"VEC2"
		},
		{
			"bufferView":21,
			"componentType":5126,
			"count":152,
			"type":"VEC2"
		},
		{
			"bufferView":22,
			"componentType":5123,
			"count":294,
			"type":"SCALAR"
		}
	],
	"bufferViews":[
		{
			"buffer":0,
			"byteLength":1824,
			"byteOffset":0,
			"target":34962
		},
		{
			"buffer":0,
			"byteLength":1824,
			"byteOffset":1824,
			"target":34962
		},
		{
			"buffer":0,
			"byteLength":1216,
			"byteOffset":3648,
			"target":34962
		},
		{
			"buffer":0,
			"byteLength":1216,
			"byteOffset":4864,
			"target":34962
		},
		{
			"buffer":0,
			"byteLength":1216,
			"byteOffset":6080,
			"target":34962
		},
		{
			"buffer":0,
			"byteLength":1216,
			"byteOffset":7296,
			"target":34962
		},
		{
			"buffer":0,
			"byteLength":1216,
			"byteOffset":8512,
			"target":34962
		},
		{
			"buffer":0,
			"byteLength":1216,
			"byteOffset":9728,
			"target":34962
		},
		{
			"buffer":0,
			"byteLength":1216,
			"byteOffset":10944,
			"target":34962
		},
		{
			"buffer":0,
			"byteLength":1216,
			"byteOffset":12160,
			"target":34962
		},
		{
			"buffer":0,
			"byteLength":1216,
			"byteOffset":13376,
			"target":34962
		},
		{
			"buffer":0,
			"byteLength":1216,
			"byteOffset":14592,
			"target":34962
		},
		{
			"buffer":0,
			"byteLength":1216,
			"byteOffset":15808,
			"target":34962
		},
		{
			"buffer":0,
			"byteLength":1216,
			"byteOffset":17024,
			"target":34962
		},
		{
			"buffer":0,
			"byteLength":1216,
			"byteOffset":18240,
			"target":34962
		},
		{
			"buffer":0,
			"byteLength":1216,
			"byteOffset":19456,
			"target":34962
		},
		{
			"buffer":0,
			"byteLength":1216,
			"byteOffset":20672,
			"target":34962
		},
		{
			"buffer":0,
			"byteLength":1216,
			"byteOffset":21888,
			"target":34962
		},
		{
			"buffer":0,
			"byteLength":1216,
			"byteOffset":23104,
			"target":34962
		},
		{
			"buffer":0,
			"byteLength":1216,
			"byteOffset":24320,
			"target":34962
		},
		{
			"buffer":0,
			"byteLength":1216,
			"byteOffset":25536,
			"target":34962
		},
		{
			"buffer":0,
			"byteLength":1216,
			"byteOffset":26752,
			"target":34962
		},
		{
			"buffer":0,
			"byteLength":588,
			"byteOffset":27968,
			"target":34963
		}
	],
	"buffers":[
		{
			"byteLength":28556,
			"uri":"data:application/octet-stream;base64,"
		}
	]
}
